<?xml version="1.0" standalone="no"?>
<!DOCTYPE svg PUBLIC "-//W3C//DTD SVG 20010904//EN"
 "http://www.w3.org/TR/2001/REC-SVG-20010904/DTD/svg10.dtd">
<svg version="1.0" xmlns="http://www.w3.org/2000/svg"
 width="225.000000pt" height="225.000000pt" viewBox="0 0 225.000000 225.000000"
 preserveAspectRatio="xMidYMid meet">
<metadata>
Created by potrace 1.11, written by Peter Selinger 2001-2013
</metadata>
<g transform="translate(0.000000,225.000000) scale(0.100000,-0.100000)"
fill="#000000" stroke="none">
<path d="M1238 2099 c-30 -17 -39 -46 -49 -167 -5 -64 -19 -180 -30 -256 -20
-139 -20 -140 -68 -205 -26 -37 -87 -124 -136 -195 -114 -168 -230 -306 -255
-306 -17 0 -19 5 -14 52 9 89 34 206 76 353 71 254 78 306 53 393 -30 101
-116 156 -205 132 -61 -16 -112 -71 -193 -205 -36 -61 -75 -119 -86 -129 -20
-18 -21 -18 -31 8 -5 15 -17 90 -25 166 -8 76 -21 154 -28 173 -27 63 -95 95
-147 67 -34 -18 -59 -136 -85 -405 -18 -187 -20 -546 -4 -577 13 -24 67 -48
109 -48 40 0 84 60 111 154 11 39 28 95 36 124 9 29 32 74 52 100 34 45 81
155 81 191 0 9 15 35 33 57 18 21 46 57 62 79 30 42 44 55 59 55 17 0 -5 -130
-60 -351 -50 -198 -56 -237 -57 -335 -2 -106 -1 -112 28 -159 42 -68 106 -115
155 -115 35 0 44 6 89 58 96 109 291 363 332 432 23 39 43 70 46 70 2 0 2 -12
-1 -27 -3 -16 -12 -86 -20 -158 -9 -71 -29 -213 -46 -314 -16 -102 -30 -207
-30 -233 0 -98 47 -156 118 -145 46 8 77 44 94 109 6 26 16 48 20 48 5 0 20
25 34 55 22 47 35 106 48 212 1 11 10 32 18 46 9 13 28 62 42 108 36 118 42
125 118 132 139 11 264 95 338 227 29 52 47 70 115 114 44 29 97 59 118 65 21
7 57 23 80 36 23 12 59 28 80 35 35 11 37 13 37 56 0 42 -1 44 -30 44 -35 0
-62 -13 -138 -64 -72 -48 -170 -73 -187 -47 -3 6 -9 41 -14 79 -13 104 -47
154 -123 187 -75 31 -149 11 -206 -55 -19 -22 -47 -47 -63 -55 -28 -15 -28
-15 -38 22 -33 128 -41 164 -41 194 -1 77 -112 153 -172 118z m473 -366 c12
-27 26 -75 31 -108 14 -84 -2 -128 -67 -177 -62 -48 -159 -97 -207 -104 -34
-6 -36 -5 -43 25 -9 41 1 84 38 156 67 134 130 218 182 241 43 19 44 19 66
-33z m-88 -422 c-5 -19 -29 -34 -73 -47 -23 -6 -24 -6 -10 11 15 18 69 55 82
55 3 0 4 -8 1 -19z"/>
</g>
</svg>
